<?xml version="1.0" standalone="no"?>
<!DOCTYPE svg PUBLIC "-//W3C//DTD SVG 20010904//EN"
 "http://www.w3.org/TR/2001/REC-SVG-20010904/DTD/svg10.dtd">
<svg version="1.0" xmlns="http://www.w3.org/2000/svg"
 width="500.000000pt" height="500.000000pt" viewBox="0 0 500.000000 500.000000"
 preserveAspectRatio="xMidYMid meet">
<metadata>
Created by potrace 1.16, written by Peter Selinger 2001-2019
</metadata>
<g transform="translate(0.000000,500.000000) scale(0.100000,-0.100000)"
fill="#ea1d2c" stroke="none">
<path d="M2007 4220 c-27 -10 -54 -25 -60 -33 -7 -7 -32 -19 -57 -26 -25 -7
-67 -20 -95 -30 -107 -39 -185 -61 -215 -61 -21 0 -43 -11 -73 -39 -23 -21
-81 -63 -128 -93 -131 -84 -229 -160 -279 -215 -80 -88 -99 -108 -120 -125
-11 -11 -20 -30 -20 -47 0 -15 -13 -57 -29 -92 -48 -106 -62 -173 -68 -329 -3
-80 -10 -151 -15 -157 -6 -7 -21 -13 -34 -13 -23 0 -46 -17 -62 -47 -8 -14
-14 -14 -56 2 -34 13 -61 16 -102 12 -74 -8 -94 -26 -94 -88 0 -43 4 -51 35
-75 26 -20 35 -34 35 -56 0 -20 10 -39 29 -57 l29 -27 -29 -16 c-34 -20 -37
-46 -13 -104 21 -51 40 -72 73 -79 22 -5 29 -14 39 -50 14 -54 48 -75 122 -75
l50 0 0 -63 c0 -55 -3 -63 -22 -72 -29 -13 -55 -59 -73 -130 -9 -32 -24 -69
-34 -84 -27 -38 -43 -105 -36 -154 3 -23 7 -87 9 -142 2 -88 6 -106 29 -146
33 -56 52 -74 100 -94 20 -8 37 -19 38 -23 1 -4 3 -28 5 -54 10 -110 43 -235
79 -297 65 -110 225 -209 381 -235 251 -42 385 -48 1087 -43 420 2 726 9 817
16 180 16 424 56 508 83 56 19 67 27 96 72 40 60 65 161 73 291 5 75 10 95 29
118 13 16 24 34 24 40 0 6 22 56 50 112 86 173 87 263 6 421 -49 95 -107 164
-157 184 -28 12 -29 14 -29 86 l0 74 30 0 c60 0 110 41 110 89 0 22 24 29 35
11 3 -5 40 -10 82 -10 l77 0 42 45 c25 28 44 41 46 33 3 -9 26 -12 77 -10 123
3 150 30 151 143 0 71 -3 81 -33 125 -46 67 -74 79 -179 79 -95 0 -99 2 -103
60 -3 42 -43 123 -68 136 -11 6 -41 9 -66 7 l-47 -5 -33 141 c-18 78 -46 174
-62 214 -18 46 -29 92 -29 123 0 54 -29 122 -55 133 -9 3 -25 6 -36 6 -10 0
-19 3 -19 8 0 4 -27 40 -60 81 -52 65 -60 80 -60 117 0 55 -36 88 -86 78 -29
-5 -42 1 -120 61 -113 86 -355 207 -461 230 -26 5 -33 12 -33 30 0 36 -26 55
-75 55 -41 0 -68 -14 -77 -41 -3 -8 -28 -7 -93 2 -55 9 -182 14 -325 14 -163
1 -242 5 -257 13 -30 16 -59 14 -116 -8z m664 -57 l126 -18 12 -42 c7 -27 17
-43 27 -43 8 0 13 -4 9 -9 -7 -12 9 -22 41 -26 30 -3 54 27 54 67 0 20 5 28
18 28 29 0 131 -44 243 -106 123 -67 168 -97 236 -158 49 -44 51 -48 41 -77
-9 -26 -7 -33 11 -50 11 -11 21 -29 21 -40 0 -19 5 -21 62 -18 l61 4 50 -72
50 -71 -22 -37 c-25 -43 -26 -99 -2 -140 16 -27 23 -30 67 -30 l49 0 22 -65
c12 -36 28 -105 37 -155 l15 -90 -59 -60 c-33 -33 -60 -64 -60 -68 0 -17 22
-4 73 43 30 27 57 47 61 43 15 -15 3 -42 -35 -78 -39 -39 -66 -75 -54 -75 3 0
28 21 55 46 l50 47 0 -29 c0 -16 -13 -51 -28 -78 -26 -48 -30 -50 -122 -82
-114 -40 -254 -77 -276 -72 -10 2 10 23 55 56 91 70 110 92 53 63 -23 -12 -71
-46 -106 -76 -74 -62 -117 -74 -276 -73 -52 0 -169 -5 -260 -11 -91 -6 -183
-11 -205 -11 l-40 0 30 16 c36 18 67 45 61 52 -6 6 -96 -51 -96 -60 0 -5 -28
-8 -62 -8 l-63 0 38 26 c57 38 37 42 -24 4 l-53 -32 -115 7 c-64 3 -159 12
-211 20 -52 7 -176 16 -275 20 -223 8 -422 20 -585 35 -95 9 -149 20 -225 46
-118 41 -199 83 -203 105 -2 10 18 30 53 54 30 21 55 42 55 46 0 13 -47 -8
-84 -36 -18 -14 -36 -25 -39 -25 -11 0 -8 192 3 251 6 30 13 70 16 89 9 59 31
143 51 189 18 40 20 43 34 27 37 -44 39 -45 77 -39 20 3 40 11 44 17 8 11 8
160 1 189 -2 9 -13 17 -24 17 -26 0 -25 5 17 62 59 79 312 268 322 240 2 -7
10 -12 18 -12 8 0 14 -4 14 -8 0 -16 60 -42 98 -42 47 0 47 1 57 103 6 65 8
68 43 86 20 10 89 38 152 61 l115 42 42 -47 c35 -41 47 -48 89 -53 58 -6 74
10 74 79 0 58 -9 56 210 58 110 1 207 -5 291 -16z m-1821 -1267 c-5 -15 -10
-40 -10 -56 0 -61 -21 -74 -77 -46 -67 34 -83 38 -115 33 -18 -3 -42 -7 -53
-9 -31 -5 -32 37 -1 57 23 15 28 15 72 -4 65 -29 130 -28 145 2 14 27 41 58
46 53 2 -2 -1 -15 -7 -30z m3295 -167 c5 -7 35 -9 89 -4 91 7 129 -5 134 -43
2 -13 10 -22 22 -22 10 0 20 -10 24 -22 10 -40 7 -48 -23 -48 -25 0 -28 3 -24
21 14 53 -86 89 -237 87 -36 0 -81 3 -100 7 l-35 9 55 12 c72 16 88 16 95 3z
m-2507 -765 c133 -4 242 -9 242 -12 0 -3 -27 -30 -59 -61 -36 -33 -63 -68 -67
-86 -4 -16 -21 -47 -37 -67 l-30 -37 -29 20 c-32 23 -113 54 -170 64 -21 4
-38 13 -38 19 0 27 -46 55 -108 65 -34 5 -67 13 -72 16 -6 3 -10 27 -10 52 l0
45 68 -6 c37 -3 176 -9 310 -12z m1881 -6 c113 5 210 6 215 1 17 -15 19 -104
3 -134 -14 -27 -18 -28 -75 -26 -33 1 -83 -4 -111 -13 l-50 -15 -57 45 c-32
24 -62 44 -67 44 -5 0 -23 10 -40 22 -38 27 -41 28 -143 35 -71 5 -83 8 -92
27 l-9 21 110 -8 c64 -5 197 -5 316 1z m-471 -34 c11 -35 9 -39 -45 -113 -58
-78 -200 -223 -288 -293 -27 -22 -67 -60 -87 -85 l-38 -45 0 -99 c0 -92 -1
-99 -20 -99 -27 0 -40 30 -40 95 0 52 -26 127 -48 137 -17 7 -154 180 -187
236 -24 42 -49 69 -81 89 -72 45 -187 138 -213 173 l-24 33 33 -6 c18 -4 131
-7 252 -7 l219 0 17 -32 c9 -17 30 -45 45 -62 l28 -31 -17 35 c-9 19 -26 45
-37 58 -20 21 -20 22 -1 22 10 0 25 -9 32 -20 16 -26 37 -27 23 -1 -10 18 -4
19 112 25 67 3 147 10 177 15 30 4 82 9 116 10 l61 1 11 -36z m-1963 -671 c22
-3 47 -11 55 -18 8 -6 35 -21 60 -32 38 -17 81 -22 275 -31 127 -7 275 -19
330 -27 84 -13 117 -14 205 -4 77 8 127 8 190 0 47 -6 133 -16 193 -23 106
-12 107 -12 107 -38 0 -36 17 -50 64 -50 52 0 76 22 76 70 0 37 1 38 43 44 23
3 85 5 137 4 212 -4 381 0 466 13 49 7 105 12 124 11 85 -6 401 36 442 58 15
8 16 2 11 -68 -6 -97 -17 -140 -44 -172 -11 -14 -18 -19 -14 -12 11 21 -13 13
-47 -17 -36 -31 -178 -70 -338 -91 -47 -6 -96 -14 -110 -17 -23 -6 -21 -2 18
40 23 26 42 49 42 52 0 16 -27 -1 -80 -50 -33 -30 -66 -55 -74 -55 -8 0 10 24
41 52 59 57 98 106 90 114 -3 3 -45 -33 -94 -80 l-89 -84 -94 -8 c-80 -6 -640
-13 -640 -7 0 1 24 25 53 53 58 57 41 53 -42 -9 l-55 -41 -275 0 c-278 0 -633
19 -649 34 -1 2 20 23 48 47 47 40 60 59 42 59 -4 0 -34 -23 -65 -51 l-57 -51
-83 7 c-85 8 -149 27 -180 54 -18 15 -16 18 38 67 79 69 68 92 -12 25 -33 -28
-65 -51 -70 -51 -13 0 -55 47 -88 97 -21 32 -75 212 -75 249 0 2 19 -10 43
-26 23 -17 60 -33 82 -37z"/>
<path d="M2319 4143 c-7 -7 -13 -33 -13 -57 -1 -36 5 -51 37 -89 32 -40 44
-47 73 -47 30 0 37 5 50 35 33 80 6 133 -83 158 -45 13 -54 13 -64 0z"/>
<path d="M1840 3989 c-30 -17 -61 -38 -67 -47 -19 -24 -16 -88 7 -133 24 -47
37 -54 85 -45 51 10 65 44 65 161 0 111 -2 113 -90 64z"/>
<path d="M2743 3980 c-32 -13 -31 -75 2 -140 20 -39 31 -50 50 -50 42 0 76 19
86 49 6 18 20 32 35 35 13 4 24 10 24 14 0 4 -20 27 -44 51 -36 35 -52 44 -88
47 -23 2 -53 -1 -65 -6z"/>
<path d="M3032 3947 c-28 -29 -28 -59 -1 -114 20 -41 23 -43 62 -43 69 0 78
15 81 125 l1 50 -60 3 c-53 2 -64 0 -83 -21z"/>
<path d="M2460 3918 c-63 -38 -78 -71 -62 -127 6 -20 14 -46 17 -57 6 -23 31
-34 77 -34 33 0 59 35 57 76 -1 16 3 42 10 57 6 16 11 48 11 73 0 42 -2 44
-28 44 -15 0 -52 -15 -82 -32z"/>
<path d="M2066 3744 c-7 -51 15 -144 39 -164 7 -6 35 -10 62 -8 l48 3 8 55 c5
35 4 56 -3 58 -5 2 -10 10 -10 17 0 23 -81 85 -110 85 -25 0 -28 -4 -34 -46z"/>
<path d="M3224 3745 c-25 -39 -29 -106 -9 -159 18 -46 18 -46 64 -46 26 0 53
6 61 13 8 6 5 0 -8 -14 -26 -29 -27 -42 -8 -58 7 -6 16 -26 20 -43 9 -48 23
-58 77 -58 71 0 89 21 89 105 0 52 -4 69 -20 85 -21 21 -78 27 -109 11 -15 -8
-17 -6 -13 19 6 45 -24 124 -58 148 -38 29 -66 28 -86 -3z"/>
<path d="M1350 3741 c-19 -4 -47 -15 -62 -25 -23 -15 -28 -26 -28 -60 0 -23 9
-57 19 -76 17 -32 23 -35 57 -33 22 2 44 10 50 18 13 17 28 160 19 175 -3 6
-9 9 -13 9 -4 -1 -23 -4 -42 -8z"/>
<path d="M2925 3595 c-68 -24 -91 -73 -65 -139 8 -23 15 -26 60 -26 49 0 50 0
70 44 30 67 26 136 -9 136 -9 -1 -34 -7 -56 -15z"/>
<path d="M2002 3567 c-35 -39 -54 -87 -47 -121 3 -17 9 -51 12 -76 7 -62 17
-70 79 -70 43 0 55 4 64 20 17 32 2 158 -26 215 -28 57 -51 66 -82 32z"/>
<path d="M1486 3550 c-30 -10 -76 -47 -76 -63 0 -5 14 -24 32 -40 18 -17 41
-49 53 -72 19 -37 23 -40 66 -43 43 -3 47 -1 57 25 16 42 24 109 17 141 -11
51 -76 73 -149 52z"/>
<path d="M3053 3370 c-26 -11 -43 -40 -43 -74 0 -16 -6 -26 -14 -26 -20 0 -26
-24 -15 -64 11 -41 37 -52 97 -43 47 8 78 43 86 100 15 97 -29 140 -111 107z"/>
<path d="M2366 3348 c-11 -15 -16 -45 -16 -93 0 -92 15 -115 75 -115 43 0 44
1 62 48 22 56 23 160 2 173 -8 5 -35 9 -61 9 -37 0 -50 -5 -62 -22z"/>
<path d="M2655 3249 c-31 -35 -36 -46 -31 -72 13 -67 77 -95 149 -68 22 9 26
18 32 76 9 83 -6 105 -70 105 -37 0 -47 -5 -80 -41z"/>
</g>
</svg>
